<svg width="1000" height="500" xmlns="http://www.w3.org/2000/svg" fill="none">

 <!-- | YES -->
 <g>
  <title>Layer 1</title>
  <path id="svg_1" d="m0,0l900,0l0,600l-900,0l0,-600z" fill="transparent"/>
  <path id="svg_2" fill="#E1E4E5" d="m193.467,115.96l-3.013,0a1.317,1.317 0 0 1 -1.315,-1.316l0,-3.013c0,-0.728 0.593,-1.315 1.315,-1.315l3.013,0a1.32,1.32 0 0 1 1.316,1.315l0,3.013a1.313,1.313 0 0 1 -1.316,1.316zm-10.446,0l-3.013,0a1.32,1.32 0 0 1 -1.315,-1.316l0,-3.013c0,-0.728 0.593,-1.315 1.315,-1.315l3.013,0a1.32,1.32 0 0 1 1.315,1.315l0,3.013a1.32,1.32 0 0 1 -1.315,1.316zm-10.453,0l-3.013,0a1.32,1.32 0 0 1 -1.315,-1.316l0,-3.013c0,-0.728 0.593,-1.315 1.315,-1.315l3.013,0a1.32,1.32 0 0 1 1.315,1.315l0,3.013a1.312,1.312 0 0 1 -1.315,1.316zm-10.447,0l-3.012,0a1.32,1.32 0 0 1 -1.316,-1.316l0,-3.013c0,-0.728 0.593,-1.315 1.316,-1.315l3.012,0c0.729,0 1.322,0.593 1.322,1.315l0,3.013a1.33,1.33 0 0 1 -1.322,1.316zm-10.446,0l-3.013,0a1.322,1.322 0 0 1 -1.321,-1.316l0,-3.013c0,-0.728 0.593,-1.315 1.321,-1.315l3.013,0a1.32,1.32 0 0 1 1.315,1.315l0,3.013a1.32,1.32 0 0 1 -1.315,1.316zm30.963,-11.392l-3.013,0a1.32,1.32 0 0 1 -1.315,-1.315l0,-3.019a1.32,1.32 0 0 1 1.315,-1.315l3.013,0c0.729,0 1.315,0.593 1.315,1.315l0,3.013a1.313,1.313 0 0 1 -1.315,1.321zm-10.446,0l-3.013,0a1.32,1.32 0 0 1 -1.315,-1.315l0,-3.019a1.32,1.32 0 0 1 1.315,-1.315l3.013,0a1.32,1.32 0 0 1 1.315,1.315l0,3.013a1.313,1.313 0 0 1 -1.315,1.321zm-10.447,0l-3.013,0a1.32,1.32 0 0 1 -1.321,-1.315l0,-3.019c0,-0.722 0.592,-1.315 1.321,-1.315l3.013,0a1.32,1.32 0 0 1 1.315,1.315l0,3.013c0,0.729 -0.593,1.321 -1.315,1.321zm10.823,23.629l-3.013,0a1.32,1.32 0 0 1 -1.315,-1.315l0,-3.013c0,-0.729 0.593,-1.316 1.315,-1.316l3.013,0a1.32,1.32 0 0 1 1.315,1.316l0,3.013a1.311,1.311 0 0 1 -1.315,1.315zm-10.447,0l-3.012,0a1.32,1.32 0 0 1 -1.316,-1.315l0,-3.013c0,-0.729 0.593,-1.316 1.316,-1.316l3.012,0c0.729,0 1.322,0.593 1.322,1.316l0,3.013a1.33,1.33 0 0 1 -1.322,1.315zm522.419,351.05l4.089,0c0.988,0 1.784,0.804 1.784,1.784l0,4.089c0,0.989 -0.804,1.785 -1.784,1.785l-4.089,0a1.791,1.791 0 0 1 -1.785,-1.785l0,-4.089a1.78,1.78 0 0 1 1.785,-1.784zm14.177,0l4.089,0c0.98,0 1.784,0.804 1.784,1.784l0,4.089c0,0.989 -0.804,1.785 -1.784,1.785l-4.089,0a1.791,1.791 0 0 1 -1.785,-1.785l0,-4.089c0,-0.98 0.804,-1.784 1.785,-1.784zm14.185,0l4.089,0c0.981,0 1.785,0.804 1.785,1.784l0,4.089c0,0.989 -0.804,1.785 -1.785,1.785l-4.089,0c-0.98,0 -1.784,-0.804 -1.784,-1.785l0,-4.089a1.78,1.78 0 0 1 1.784,-1.784zm14.178,0l4.089,0c0.98,0 1.785,0.804 1.785,1.784l0,4.089c0,0.989 -0.805,1.785 -1.785,1.785l-4.089,0a1.793,1.793 0 0 1 -1.793,-1.785l0,-4.089a1.804,1.804 0 0 1 1.793,-1.784zm14.178,0l4.089,0c0.988,0 1.793,0.804 1.793,1.784l0,4.089c0,0.989 -0.805,1.785 -1.793,1.785l-4.089,0a1.791,1.791 0 0 1 -1.785,-1.785l0,-4.089c0,-0.98 0.804,-1.784 1.785,-1.784zm-42.022,15.459l4.089,0c0.98,0 1.785,0.804 1.785,1.785l0,4.097c0,0.98 -0.805,1.785 -1.785,1.785l-4.089,0a1.787,1.787 0 0 1 -1.785,-1.785l0,-4.089a1.783,1.783 0 0 1 1.785,-1.793zm14.178,0l4.089,0c0.98,0 1.784,0.804 1.784,1.785l0,4.097c0,0.98 -0.804,1.785 -1.784,1.785l-4.089,0a1.792,1.792 0 0 1 -1.785,-1.785l0,-4.089a1.782,1.782 0 0 1 1.785,-1.793zm14.177,0l4.089,0c0.989,0 1.793,0.804 1.793,1.785l0,4.097c0,0.98 -0.804,1.785 -1.793,1.785l-4.089,0c-0.98,0 -1.785,-0.805 -1.785,-1.785l0,-4.089c0,-0.989 0.805,-1.793 1.785,-1.793zm-14.689,-32.067l4.089,0c0.981,0 1.785,0.804 1.785,1.785l0,4.089c0,0.988 -0.804,1.784 -1.785,1.784l-4.089,0a1.79,1.79 0 0 1 -1.784,-1.784l0,-4.089a1.78,1.78 0 0 1 1.784,-1.785zm14.178,0l4.089,0c0.98,0 1.785,0.804 1.785,1.785l0,4.089c0,0.988 -0.805,1.784 -1.785,1.784l-4.089,0a1.793,1.793 0 0 1 -1.793,-1.784l0,-4.089a1.804,1.804 0 0 1 1.793,-1.785z" clip-rule="evenodd" fill-rule="evenodd"/>
  <path id="svg_3" stroke-width="4.518" stroke="#E1E4E5" fill="#fff" d="m744.523,431.334l-477.081,0c-13.925,0 -25.218,-11.293 -25.218,-25.218l0,-298.923c0,-13.925 11.293,-25.218 25.218,-25.218l477.081,0c13.925,0 25.218,11.293 25.218,25.218l0,298.923c0,13.925 -11.293,25.218 -25.218,25.218z"/>
  <path id="svg_4" stroke-width="4.518" stroke="#E1E4E5" fill="#fff" d="m769.741,114.924l-527.517,0l0,-7.731c0,-13.925 11.293,-25.218 25.218,-25.218l477.081,0c13.925,0 25.218,11.293 25.218,25.218l0,7.731z"/>
  <path id="svg_5" fill="#E1E4E5" d="m266.51,103.437a5.083,5.083 0 1 0 0,-10.165a5.083,5.083 0 0 0 0,10.165zm20.332,0a5.083,5.083 0 1 0 0,-10.165a5.083,5.083 0 0 0 0,10.165zm20.897,0c3.119,0 5.648,-2.275 5.648,-5.083c0,-2.807 -2.529,-5.083 -5.648,-5.083c-3.119,0 -5.648,2.276 -5.648,5.083c0,2.808 2.529,5.083 5.648,5.083z"/>
  <rect stroke="null" id="svg_6" fill="#E1E4E5" rx="8.231" height="16.461" width="317.00799" y="283.635" x="283"/>
  <rect stroke="null" id="svg_7" fill="#E1E4E5" rx="8.231" height="16.461" width="407.00801" y="330.962" x="283"/>
  <rect stroke="null" id="svg_8" fill="#E1E4E5" rx="8.472" height="16.944" width="400.35801" y="234.596" x="283"/>
  <rect stroke="null" id="svg_9" fill="#E1E4E5" rx="8.231" height="16.461" width="425.32502" y="185.896" x="282.676"/>
  <circle id="svg_11" fill="#5f9ea0" transform="matrix(1 0 0 -1 177.839 373.403)" r="10.166"/>
  <circle id="svg_12" fill="#E1E4E5" transform="rotate(-180 189.7 281.344)" r="10.731" cy="281.344" cx="189.7"/>
  <circle id="svg_13" fill="#E1E4E5" transform="matrix(-1 0 0 1 274.417 483.536)" r="10.731"/>
  <rect id="svg_14" fill="#E1E4E5" transform="rotate(-45 158.637 483.368)" rx="2.359" height="4.718" width="40.499" y="483.368" x="158.637"/>
  <rect id="svg_15" fill="#E1E4E5" transform="rotate(-45 174.164 483.479)" rx="2.359" height="4.718" width="15.037" y="483.479" x="174.164"/>
  <rect id="svg_16" fill="#E1E4E5" transform="rotate(135 227.924 133.91)" rx="1.529" height="3.057" width="26.24" y="133.91" x="227.924"/>
  <rect id="svg_17" fill="#E1E4E5" transform="rotate(135 217.863 133.838)" rx="1.529" height="3.057" width="9.743" y="133.838" x="217.863"/>
  <path id="svg_18" fill="#5f9ea0" d="m555.162,300.151l-29.757,-95.431c-3.138,-10.067 7.128,-19.088 16.654,-14.628l88.746,41.592c10.517,4.927 8.748,20.462 -2.61,22.869l-36.535,7.761l-13.555,38.266c-3.903,10.987 -19.466,10.684 -22.943,-0.429z" clip-rule="evenodd" fill-rule="evenodd"/>
  <circle id="svg_19" fill="#5f9ea0" transform="rotate(30 605.091 471.952) scale(-1 1)" r="8.472"/>
  <circle id="svg_20" fill="#5f9ea0" transform="rotate(30 716.918 240.391) scale(-1 1)" r="8.472"/>
  <circle id="svg_21" fill="#5f9ea0" transform="rotate(-30 303.988 370.782) scale(1 -1)" r="6.35"/>
 </g>
</svg>