<svg width="1000" height="500" xmlns="http://www.w3.org/2000/svg">
   <g>
      <title>Layer 1</title>
      <rect stroke-width="4" rx="23" id="svg_1" height="333.21743" width="527.00001" y="78" x="241" fill="#ffffff"
         stroke="#e1e4e5" />
      <line id="svg_8" y2="111" x2="765.00002" y1="112" x1="240" stroke-width="4" fill="none" stroke="#e1e4e5" />
      <ellipse ry="5" rx="5" id="svg_9" cy="100" cx="270.07178" stroke-width="0" fill="#e1e4e5" stroke="#000" />
      <ellipse ry="5" rx="5" id="svg_11" cy="100" cx="286.5" stroke-width="0" fill="#e1e4e5" stroke="#000" />
      <ellipse ry="5" rx="5" id="svg_12" cy="100" cx="303" stroke-width="0" fill="#e1e4e5" stroke="#000" />
      <text font-style="normal" font-weight="normal" transform="matrix(2.32484 0 0 2.23416 -570.558 -341.954)"
         stroke="#000000" xml:space="preserve" text-anchor="start" font-family="'Montserrat Light'" font-size="18"
         id="svg_13" y="226.5" x="514.3" stroke-width="0" fill="#5f9ea0">+</text>
      <ellipse stroke="#5f9ea0" ry="17.39131" rx="17.39131" id="svg_14" cy="150.17393" cx="636.73913" stroke-width="4"
         fill="none" />
      <rect stroke="#e1e4e5" rx="3" id="svg_15" height="2" width="339.91301" y="159.86958" x="266.3043"
         fill="#e1e4e5" />
      <circle r="8.472" transform="rotate(30 281.406 -215.2) scale(-1 1)" fill="#5f9ea0" id="svg_3" />
      <rect x="330.637" y="294.368" width="40.499" height="4.718" rx="2.359" fill="#E1E4E5" id="svg_4"
         transform="rotate(-45 150.637 414.368)" />
      <rect x="347.60998" y="295.37092" width="15.037" height="4.718" rx="2.359" fill="#E1E4E5" id="svg_5"
         transform="rotate(-45 167.137 415.371)" />
      <rect stroke="#e2dec7" rx="20" id="svg_16" height="64.00001" width="421.99999" y="120.49999" x="252.50001"
         stroke-width="4" fill="none" />
      <path fill-rule="evenodd" clip-rule="evenodd"
         d="m220.31346,105.19973l-2.93765,0a1.28406,1.25824 0 0 1 -1.28211,-1.25729l0,-2.87858c0,-0.69552 0.57817,-1.25633 1.28211,-1.25633l2.93765,0a1.28699,1.26111 0 0 1 1.28309,1.25633l0,2.87858a1.28016,1.25442 0 0 1 -1.28309,1.25729zm-10.18476,0l-2.93765,0a1.28699,1.26111 0 0 1 -1.28211,-1.25729l0,-2.87858c0,-0.69552 0.57817,-1.25633 1.28211,-1.25633l2.93765,0a1.28699,1.26111 0 0 1 1.28211,1.25633l0,2.87858a1.28699,1.26111 0 0 1 -1.28211,1.25729zm-10.19159,0l-2.93765,0a1.28699,1.26111 0 0 1 -1.28211,-1.25729l0,-2.87858c0,-0.69552 0.57817,-1.25633 1.28211,-1.25633l2.93765,0a1.28699,1.26111 0 0 1 1.28211,1.25633l0,2.87858a1.27919,1.25347 0 0 1 -1.28211,1.25729zm-10.18574,0l-2.93667,0a1.28699,1.26111 0 0 1 -1.28309,-1.25729l0,-2.87858c0,-0.69552 0.57817,-1.25633 1.28309,-1.25633l2.93667,0c0.71077,0 1.28894,0.56654 1.28894,1.25633l0,2.87858a1.29674,1.27066 0 0 1 -1.28894,1.25729zm-10.18476,0l-2.93765,0a1.28894,1.26302 0 0 1 -1.28796,-1.25729l0,-2.87858c0,-0.69552 0.57817,-1.25633 1.28796,-1.25633l2.93765,0a1.28699,1.26111 0 0 1 1.28211,1.25633l0,2.87858a1.28699,1.26111 0 0 1 -1.28211,1.25729zm30.18867,-10.88375l-2.93765,0a1.28699,1.26111 0 0 1 -1.28211,-1.25633l0,-2.88431a1.28699,1.26111 0 0 1 1.28211,-1.25633l2.93765,0c0.71077,0 1.28211,0.56654 1.28211,1.25633l0,2.87858a1.28016,1.25442 0 0 1 -1.28211,1.26206zm-10.18476,0l-2.93765,0a1.28699,1.26111 0 0 1 -1.28211,-1.25633l0,-2.88431a1.28699,1.26111 0 0 1 1.28211,-1.25633l2.93765,0a1.28699,1.26111 0 0 1 1.28211,1.25633l0,2.87858a1.28016,1.25442 0 0 1 -1.28211,1.26206zm-10.18574,0l-2.93765,0a1.28699,1.26111 0 0 1 -1.28796,-1.25633l0,-2.88431c0,-0.68979 0.5772,-1.25633 1.28796,-1.25633l2.93765,0a1.28699,1.26111 0 0 1 1.28211,1.25633l0,2.87858c0,0.69648 -0.57817,1.26206 -1.28211,1.26206zm10.55233,22.5748l-2.93765,0a1.28699,1.26111 0 0 1 -1.28211,-1.25633l0,-2.87858c0,-0.69648 0.57817,-1.25729 1.28211,-1.25729l2.93765,0a1.28699,1.26111 0 0 1 1.28211,1.25729l0,2.87858a1.27821,1.25251 0 0 1 -1.28211,1.25633zm-10.18574,0l-2.93667,0a1.28699,1.26111 0 0 1 -1.28309,-1.25633l0,-2.87858c0,-0.69648 0.57817,-1.25729 1.28309,-1.25729l2.93667,0c0.71077,0 1.28894,0.56654 1.28894,1.25729l0,2.87858a1.29674,1.27066 0 0 1 -1.28894,1.25633zm509.35417,335.38798l3.98674,0c0.96329,0 1.73939,0.76813 1.73939,1.70441l0,3.90657c0,0.94488 -0.78389,1.70536 -1.73939,1.70536l-3.98674,0a1.74621,1.71109 0 0 1 -1.74036,-1.70536l0,-3.90657a1.73549,1.70059 0 0 1 1.74036,-1.70441zm13.82246,0l3.98674,0c0.95549,0 1.73939,0.76813 1.73939,1.70441l0,3.90657c0,0.94488 -0.78389,1.70536 -1.73939,1.70536l-3.98674,0a1.74621,1.71109 0 0 1 -1.74036,-1.70536l0,-3.90657c0,-0.93628 0.78389,-1.70441 1.74036,-1.70441zm13.83026,0l3.98674,0c0.95647,0 1.74036,0.76813 1.74036,1.70441l0,3.90657c0,0.94488 -0.78389,1.70536 -1.74036,1.70536l-3.98674,0c-0.95549,0 -1.73939,-0.76813 -1.73939,-1.70536l0,-3.90657a1.73549,1.70059 0 0 1 1.73939,-1.70441zm13.82343,0l3.98674,0c0.95549,0 1.74036,0.76813 1.74036,1.70441l0,3.90657c0,0.94488 -0.78487,1.70536 -1.74036,1.70536l-3.98674,0a1.74816,1.71301 0 0 1 -1.74816,-1.70536l0,-3.90657a1.75888,1.72351 0 0 1 1.74816,-1.70441zm13.82343,0l3.98674,0c0.96329,0 1.74816,0.76813 1.74816,1.70441l0,3.90657c0,0.94488 -0.78487,1.70536 -1.74816,1.70536l-3.98674,0a1.74621,1.71109 0 0 1 -1.74036,-1.70536l0,-3.90657c0,-0.93628 0.78389,-1.70441 1.74036,-1.70441zm-40.9711,14.7693l3.98674,0c0.95549,0 1.74036,0.76813 1.74036,1.70536l0,3.91421c0,0.93628 -0.78487,1.70536 -1.74036,1.70536l-3.98674,0a1.74231,1.70727 0 0 1 -1.74036,-1.70536l0,-3.90657a1.73841,1.70345 0 0 1 1.74036,-1.71301l0,0.00001zm13.82343,0l3.98674,0c0.95549,0 1.73939,0.76813 1.73939,1.70536l0,3.91421c0,0.93628 -0.78389,1.70536 -1.73939,1.70536l-3.98674,0a1.74719,1.71205 0 0 1 -1.74036,-1.70536l0,-3.90657a1.73744,1.7025 0 0 1 1.74036,-1.71301l0,0.00001zm13.82246,0l3.98674,0c0.96427,0 1.74816,0.76813 1.74816,1.70536l0,3.91421c0,0.93628 -0.78389,1.70536 -1.74816,1.70536l-3.98674,0c-0.95549,0 -1.74036,-0.76909 -1.74036,-1.70536l0,-3.90657c0,-0.94488 0.78487,-1.71301 1.74036,-1.71301l0,0.00001zm-14.32165,-30.63634l3.98674,0c0.95647,0 1.74036,0.76813 1.74036,1.70536l0,3.90657c0,0.94392 -0.78389,1.70441 -1.74036,1.70441l-3.98674,0a1.74524,1.71014 0 0 1 -1.73939,-1.70441l0,-3.90657a1.73549,1.70059 0 0 1 1.73939,-1.70536zm13.82343,0l3.98674,0c0.95549,0 1.74036,0.76813 1.74036,1.70536l0,3.90657c0,0.94392 -0.78487,1.70441 -1.74036,1.70441l-3.98674,0a1.74816,1.71301 0 0 1 -1.74816,-1.70441l0,-3.90657a1.75888,1.72351 0 0 1 1.74816,-1.70536z"
         fill="#E1E4E5" id="svg_6" stroke="null" />
      <rect x="238.43699" y="447.76804" width="40.499" height="4.718" rx="2.359" fill="#e1e4e5" id="svg_7"
         transform="rotate(-45 258.687 450.127)" />
      <rect x="381.20998" y="536.97096" width="15.037" height="4.718" rx="2.359" fill="#E1E4E5" id="svg_10"
         transform="rotate(-45 200.737 656.971)" />
      <ellipse fill="#5f9ea0" stroke="#5f9ea0" stroke-width="4" cx="186.49996" cy="245.49998" id="svg_19" rx="7"
         ry="7" />
      <ellipse fill="#e1e4e5" stroke="#e1e4e5" stroke-width="4" cx="221.49997" cy="359.5" id="svg_20" rx="7" ry="7" />
      <ellipse fill="#5f9ea0" stroke="#5f9ea0" stroke-width="4" cx="496.49999" cy="435.5" id="svg_21" rx="7" ry="7" />
      <path fill-rule="evenodd" clip-rule="evenodd"
         d="m661.68902,230.92103l-19.48288,-64.34698c-2.05455,-6.78795 4.66693,-12.87061 10.90392,-9.86333l58.1049,28.04455c6.88582,3.32217 5.7276,13.79707 -1.70885,15.42005l-23.92065,5.23307l-8.8749,25.80191c-2.55542,7.40829 -12.74502,7.20398 -15.02153,-0.28927l-0.00001,0z"
         fill="#5f9ea0" id="svg_2" stroke="#5f9ea0" />
   </g>

</svg>