<svg width="900" height="500" viewBox="0 0 1000 500" fill="none" xmlns="http://www.w3.org/2000/svg">
   <path fill="transparent" d="M0 0h900v600H0z" />
   <path fill-rule="evenodd" clip-rule="evenodd"
      d="M193.467 115.96h-3.013a1.317 1.317 0 0 1-1.315-1.316v-3.013c0-.728.593-1.315 1.315-1.315h3.013a1.32 1.32 0 0 1 1.316 1.315v3.013a1.313 1.313 0 0 1-1.316 1.316zm-10.446 0h-3.013a1.32 1.32 0 0 1-1.315-1.316v-3.013c0-.728.593-1.315 1.315-1.315h3.013a1.32 1.32 0 0 1 1.315 1.315v3.013a1.32 1.32 0 0 1-1.315 1.316zm-10.453 0h-3.013a1.32 1.32 0 0 1-1.315-1.316v-3.013c0-.728.593-1.315 1.315-1.315h3.013a1.32 1.32 0 0 1 1.315 1.315v3.013a1.312 1.312 0 0 1-1.315 1.316zm-10.447 0h-3.012a1.32 1.32 0 0 1-1.316-1.316v-3.013c0-.728.593-1.315 1.316-1.315h3.012c.729 0 1.322.593 1.322 1.315v3.013a1.33 1.33 0 0 1-1.322 1.316zm-10.446 0h-3.013a1.322 1.322 0 0 1-1.321-1.316v-3.013c0-.728.593-1.315 1.321-1.315h3.013a1.32 1.32 0 0 1 1.315 1.315v3.013a1.32 1.32 0 0 1-1.315 1.316zm30.963-11.392h-3.013a1.32 1.32 0 0 1-1.315-1.315v-3.019a1.32 1.32 0 0 1 1.315-1.315h3.013c.729 0 1.315.593 1.315 1.315v3.013a1.313 1.313 0 0 1-1.315 1.321zm-10.446 0h-3.013a1.32 1.32 0 0 1-1.315-1.315v-3.019a1.32 1.32 0 0 1 1.315-1.315h3.013a1.32 1.32 0 0 1 1.315 1.315v3.013a1.313 1.313 0 0 1-1.315 1.321zm-10.447 0h-3.013a1.32 1.32 0 0 1-1.321-1.315v-3.019c0-.722.592-1.315 1.321-1.315h3.013a1.32 1.32 0 0 1 1.315 1.315v3.013c0 .729-.593 1.321-1.315 1.321zm10.823 23.629h-3.013a1.32 1.32 0 0 1-1.315-1.315v-3.013c0-.729.593-1.316 1.315-1.316h3.013a1.32 1.32 0 0 1 1.315 1.316v3.013a1.311 1.311 0 0 1-1.315 1.315zm-10.447 0h-3.012a1.32 1.32 0 0 1-1.316-1.315v-3.013c0-.729.593-1.316 1.316-1.316h3.012c.729 0 1.322.593 1.322 1.316v3.013a1.33 1.33 0 0 1-1.322 1.315zm522.419 351.05h4.089c.988 0 1.784.804 1.784 1.784v4.089c0 .989-.804 1.785-1.784 1.785h-4.089a1.791 1.791 0 0 1-1.785-1.785v-4.089a1.78 1.78 0 0 1 1.785-1.784zm14.177 0h4.089c.98 0 1.784.804 1.784 1.784v4.089c0 .989-.804 1.785-1.784 1.785h-4.089a1.791 1.791 0 0 1-1.785-1.785v-4.089c0-.98.804-1.784 1.785-1.784zm14.185 0h4.089c.981 0 1.785.804 1.785 1.784v4.089c0 .989-.804 1.785-1.785 1.785h-4.089c-.98 0-1.784-.804-1.784-1.785v-4.089a1.78 1.78 0 0 1 1.784-1.784zm14.178 0h4.089c.98 0 1.785.804 1.785 1.784v4.089c0 .989-.805 1.785-1.785 1.785h-4.089a1.793 1.793 0 0 1-1.793-1.785v-4.089a1.804 1.804 0 0 1 1.793-1.784zm14.178 0h4.089c.988 0 1.793.804 1.793 1.784v4.089c0 .989-.805 1.785-1.793 1.785h-4.089a1.791 1.791 0 0 1-1.785-1.785v-4.089c0-.98.804-1.784 1.785-1.784zm-42.022 15.459h4.089c.98 0 1.785.804 1.785 1.785v4.097c0 .98-.805 1.785-1.785 1.785h-4.089a1.787 1.787 0 0 1-1.785-1.785v-4.089a1.783 1.783 0 0 1 1.785-1.793zm14.178 0h4.089c.98 0 1.784.804 1.784 1.785v4.097c0 .98-.804 1.785-1.784 1.785h-4.089a1.792 1.792 0 0 1-1.785-1.785v-4.089a1.782 1.782 0 0 1 1.785-1.793zm14.177 0h4.089c.989 0 1.793.804 1.793 1.785v4.097c0 .98-.804 1.785-1.793 1.785h-4.089c-.98 0-1.785-.805-1.785-1.785v-4.089c0-.989.805-1.793 1.785-1.793zm-14.689-32.067h4.089c.981 0 1.785.804 1.785 1.785v4.089c0 .988-.804 1.784-1.785 1.784h-4.089a1.79 1.79 0 0 1-1.784-1.784v-4.089a1.78 1.78 0 0 1 1.784-1.785zm14.178 0h4.089c.98 0 1.785.804 1.785 1.785v4.089c0 .988-.805 1.784-1.785 1.784h-4.089a1.793 1.793 0 0 1-1.793-1.784v-4.089a1.804 1.804 0 0 1 1.793-1.785z"
      fill="#E1E4E5" />



   <path
      d="M744.523 431.334H267.442c-13.925 0-25.218-11.293-25.218-25.218V107.193c0-13.925 11.293-25.218 25.218-25.218h477.081c13.925 0 25.218 11.293 25.218 25.218v298.923c0 13.925-11.293 25.218-25.218 25.218z"
      fill="#fff" stroke="#E1E4E5" stroke-width="4.518" />
   <path
      d="M769.741 114.924H242.224v-7.731c0-13.925 11.293-25.218 25.218-25.218h477.081c13.925 0 25.218 11.293 25.218 25.218v7.731z"
      fill="#fff" stroke="#E1E4E5" stroke-width="4.518" />
   <path
      d="M266.51 103.437a5.083 5.083 0 1 0 0-10.165 5.083 5.083 0 0 0 0 10.165zm20.332 0a5.083 5.083 0 1 0 0-10.165 5.083 5.083 0 0 0 0 10.165zm20.897 0c3.119 0 5.648-2.275 5.648-5.083 0-2.807-2.529-5.083-5.648-5.083-3.119 0-5.648 2.276-5.648 5.083 0 2.808 2.529 5.083 5.648 5.083z"
      fill="#E1E4E5" />
   <rect x="446.676" y="283.635" width="250.008" height="16.461" rx="8.231" fill="#E1E4E5" />
   <rect x="446.676" y="330.962" width="220.008" height="16.461" rx="8.231" fill="#E1E4E5" />
   <rect x="446.676" y="235.596" width="242.358" height="16.944" rx="8.472" fill="#E1E4E5" />
   <rect x="446.676" y="185.896" width="261.325" height="16.461" rx="8.231" fill="#E1E4E5" />
   <!-- | YES -->

   <path clip-rule="evenodd"
      d="M395.845 248.022v0a54.218 54.218 0 0 1-54.219 54.219v0a54.22 54.22 0 0 1-54.219-54.219v0a54.22 54.22 0 0 1 15.879-38.34 54.223 54.223 0 0 1 38.34-15.88v0a54.222 54.222 0 0 1 38.34 15.88 54.22 54.22 0 0 1 15.879 38.34z"
      stroke="#E1E4E5" stroke-width="11.348" stroke-linecap="round" stroke-linejoin="round" />
   <circle r="10.166" transform="matrix(1 0 0 -1 177.839 373.403)" fill="#5f9ea0" />
   <circle cx="189.7" cy="281.344" r="10.731" transform="rotate(-180 189.7 281.344)" fill="#E1E4E5" />
   <circle r="10.731" transform="matrix(-1 0 0 1 274.417 483.536)" fill="#E1E4E5" />
   <rect x="158.637" y="483.368" width="40.499" height="4.718" rx="2.359" transform="rotate(-45 158.637 483.368)"
      fill="#E1E4E5" />
   <rect x="174.164" y="483.479" width="15.037" height="4.718" rx="2.359" transform="rotate(-45 174.164 483.479)"
      fill="#E1E4E5" />
   <rect x="227.924" y="133.91" width="26.24" height="3.057" rx="1.529" transform="rotate(135 227.924 133.91)"
      fill="#E1E4E5" />
   <rect x="217.863" y="133.838" width="9.743" height="3.057" rx="1.529" transform="rotate(135 217.863 133.838)"
      fill="#E1E4E5" />
   <path fill-rule="evenodd" clip-rule="evenodd"
      d="m555.162 300.151-29.757-95.431c-3.138-10.067 7.128-19.088 16.654-14.628l88.746 41.592c10.517 4.927 8.748 20.462-2.61 22.869l-36.535 7.761-13.555 38.266c-3.903 10.987-19.466 10.684-22.943-.429z"
      fill="#5f9ea0" />
   <circle r="8.472" transform="scale(-1 1) rotate(30 -1183.22 -893.139)" fill="#5f9ea0" />
   <circle r="8.472" transform="scale(-1 1) rotate(30 -807.035 -1217.592)" fill="#5f9ea0" />
   <circle r="6.35" transform="scale(1 -1) rotate(-30 -539.895 -752.64)" fill="#5f9ea0" />
</svg>